<svg width="46" height="48" viewBox="0 0 46 48" fill="none" xmlns="http://www.w3.org/2000/svg">
<g clip-path="url(#clip0_9_3)">
<g clip-path="url(#clip1_9_3)">
<g clip-path="url(#clip2_9_3)">
<path d="M0.0213623 24.0001C0.0213623 10.751 10.3092 0.0104675 22.9999 0.0104675C35.6907 0.0104675 45.9785 10.751 45.9785 24.0001C45.9785 37.2492 35.6907 47.9897 22.9999 47.9897C10.3092 47.9897 0.0213623 37.2492 0.0213623 24.0001ZM22.9999 45.844C34.5556 45.844 43.9232 36.0642 43.9232 24.0001C43.9232 11.936 34.5556 2.15619 22.9999 2.15619C11.4443 2.15619 2.07665 11.936 2.07665 24.0001C2.07665 36.0642 11.4443 45.844 22.9999 45.844Z" fill="#313A49"/>
<path d="M23 47.0301C35.183 47.0301 45.0594 36.7192 45.0594 24.0001C45.0594 11.2809 35.183 0.970047 23 0.970047C10.8169 0.970047 0.940552 11.2809 0.940552 24.0001C0.940552 36.7192 10.8169 47.0301 23 47.0301Z" fill="#313A49"/>
<g clip-path="url(#clip3_9_3)">
<g clip-path="url(#clip4_9_3)">
<g clip-path="url(#clip5_9_3)">
<g clip-path="url(#clip6_9_3)">
<g clip-path="url(#clip7_9_3)">
<g clip-path="url(#clip8_9_3)">
<g clip-path="url(#clip9_9_3)">
<path d="M21.1571 33.3197V35.8967H8.71362V12.1035H11.4525V33.3197H21.1571ZM37.2862 33.3197V35.8967H24.8427V12.1035H27.5817V33.3197H37.2862Z" fill="white"/>
</g>
</g>
</g>
</g>
</g>
</g>
</g>
</g>
</g>
</g>
<defs>
<clipPath id="clip0_9_3">
<rect width="46" height="48" fill="white"/>
</clipPath>
<clipPath id="clip1_9_3">
<rect width="45.9571" height="47.9792" fill="white" transform="translate(0.0213623 0.0104675)"/>
</clipPath>
<clipPath id="clip2_9_3">
<rect width="45.9571" height="47.9792" fill="white" transform="translate(0.0213623 0.0104675)"/>
</clipPath>
<clipPath id="clip3_9_3">
<rect width="28.5726" height="23.7932" fill="white" transform="translate(8.71362 12.1035)"/>
</clipPath>
<clipPath id="clip4_9_3">
<rect width="28.5726" height="23.7932" fill="white" transform="translate(8.71362 12.1035)"/>
</clipPath>
<clipPath id="clip5_9_3">
<rect width="28.5726" height="23.7932" fill="white" transform="translate(8.71362 12.1035)"/>
</clipPath>
<clipPath id="clip6_9_3">
<rect width="28.5726" height="23.7932" fill="white" transform="translate(8.71362 12.1035)"/>
</clipPath>
<clipPath id="clip7_9_3">
<rect width="28.5726" height="23.7932" fill="white" transform="translate(8.71362 12.1035)"/>
</clipPath>
<clipPath id="clip8_9_3">
<rect width="28.5726" height="23.7932" fill="white" transform="translate(8.71362 12.1035)"/>
</clipPath>
<clipPath id="clip9_9_3">
<rect width="28.5726" height="23.7932" fill="white" transform="translate(8.71362 12.1035)"/>
</clipPath>
</defs>
</svg>
