<svg width="98" height="102" viewBox="0 0 98 102" fill="none" xmlns="http://www.w3.org/2000/svg">
<path d="M87.7111 51C93.4844 45.7429 97.1078 38.1659 97.1078 29.7425C97.1078 13.8685 84.2393 1 68.3653 1C60.9313 1 54.1565 3.82221 49.0539 8.45367M87.7111 51C82.6046 46.3499 75.816 43.515 68.3653 43.515C61.3403 43.515 54.904 46.0352 49.9111 50.2208M87.7111 51C82.6046 55.6501 75.816 58.485 68.3653 58.485C61.3403 58.485 54.904 55.9648 49.9111 51.7792M87.7111 51C93.4844 56.2571 97.1078 63.8341 97.1078 72.2575C97.1078 88.1315 84.2393 101 68.3653 101C60.9313 101 54.1565 98.1778 49.0539 93.5463M49.0539 8.45367C54.8472 13.712 58.485 21.3024 58.485 29.7425C58.485 37.7583 55.2037 45.0077 49.9111 50.2208M49.0539 8.45367C43.9512 3.82221 37.1765 1 29.7425 1C13.8685 1 1 13.8685 1 29.7425C1 38.1659 4.62343 45.7429 10.3966 51M49.0539 8.45367C43.2606 13.712 39.6228 21.3024 39.6228 29.7425C39.6228 37.7583 42.9041 45.0077 48.1967 50.2208M49.9111 50.2208C49.642 50.4859 49.3677 50.7457 49.0884 51M49.9111 50.2208C49.6204 50.4645 49.3346 50.7138 49.0539 50.9686M48.1967 50.2208C43.2038 46.0352 36.7675 43.515 29.7425 43.515C22.2918 43.515 15.5032 46.3499 10.3966 51M48.1967 50.2208C48.4874 50.4645 48.7732 50.7138 49.0539 50.9686M48.1967 50.2208C48.4658 50.4859 48.7401 50.7457 49.0194 51M10.3966 51C4.62343 56.2571 1 63.8341 1 72.2575C1 88.1315 13.8685 101 29.7425 101C37.1765 101 43.9512 98.1778 49.0539 93.5463M10.3966 51C15.5032 55.6501 22.2918 58.485 29.7425 58.485C36.7675 58.485 43.2038 55.9648 48.1967 51.7792M49.0539 93.5463C43.2606 88.288 39.6228 80.6976 39.6228 72.2575C39.6228 64.2417 42.904 56.9923 48.1967 51.7792M49.0539 93.5463C54.8472 88.288 58.485 80.6976 58.485 72.2575C58.485 64.2417 55.2037 56.9923 49.9111 51.7792M48.1967 51.7792C48.4658 51.5141 48.7401 51.2544 49.0194 51M48.1967 51.7792C48.4874 51.5355 48.7732 51.2862 49.0539 51.0314M49.9111 51.7792C49.642 51.5141 49.3677 51.2543 49.0884 51M49.9111 51.7792C49.6204 51.5355 49.3346 51.2862 49.0539 51.0314M49.0884 51C49.0769 50.9895 49.0654 50.9791 49.0539 50.9686M49.0884 51C49.0769 51.0105 49.0654 51.0209 49.0539 51.0314M49.0539 50.9686C49.0424 50.9791 49.0309 50.9895 49.0194 51M49.0194 51C49.0309 51.0105 49.0424 51.0209 49.0539 51.0314" stroke="#7D828E" stroke-width="0.833333" stroke-miterlimit="10" stroke-linecap="round"/>
</svg>
