<svg width="94" height="20" viewBox="0 0 94 20" fill="none" xmlns="http://www.w3.org/2000/svg">
<rect x="1" y="0.5" width="92" height="19" fill="white"/>
<rect x="1" y="0.5" width="92" height="19" stroke="#E5E7EB"/>
<path opacity="0.5" d="M7.376 16.28V8.264H8.432L8.552 8.984H8.636C9.008 8.444 9.644 8.144 10.4 8.144C11.876 8.144 12.92 9.38 12.92 11.132C12.92 12.896 11.864 14.12 10.364 14.12C9.656 14.12 9.02 13.844 8.588 13.28H8.552V16.28H7.376ZM8.552 11.132C8.552 12.368 9.152 13.1 10.16 13.1C11.132 13.1 11.72 12.356 11.72 11.132C11.72 9.908 11.132 9.164 10.16 9.164C9.152 9.164 8.552 9.896 8.552 11.132ZM16.0169 14.12C14.7089 14.12 13.8569 13.436 13.8569 12.356C13.8569 11.24 14.7449 10.592 15.8849 10.592H17.8409V10.34C17.8409 9.56 17.3489 9.128 16.4849 9.128C15.6569 9.128 15.2249 9.512 15.1529 10.184H14.0489C14.1689 8.96 14.9369 8.144 16.5209 8.144C18.0209 8.144 18.9929 8.876 18.9929 10.34V12.536C18.9929 12.8 19.1489 12.956 19.4129 12.956H19.8809V14H19.2809C18.5849 14 18.1289 13.724 17.9369 13.196H17.8529C17.4929 13.82 16.8809 14.12 16.0169 14.12ZM15.0449 12.284C15.0449 12.824 15.4169 13.136 16.1489 13.136C17.1689 13.136 17.8409 12.548 17.8409 11.636V11.468H16.3049C15.4649 11.468 15.0449 11.744 15.0449 12.284ZM23.5419 14.12C21.8379 14.12 20.6619 12.908 20.6619 11.132C20.6619 9.356 21.8619 8.144 23.5539 8.144C25.0659 8.144 26.0739 9.008 26.2299 10.292H25.1259C24.9699 9.56 24.4299 9.164 23.5779 9.164C22.5099 9.164 21.8379 9.884 21.8379 11.132C21.8379 12.38 22.5099 13.1 23.5659 13.1C24.4179 13.1 24.9819 12.692 25.1259 11.972H26.2299C26.0619 13.256 25.0779 14.12 23.5419 14.12ZM27.5388 14V5.828H28.7148V10.616H28.7988L31.5468 8.264H32.9748V8.384L30.3828 10.58V10.7L33.0348 13.88V14H31.6788L29.4468 11.3H29.3868L28.7148 11.888V14H27.5388ZM36.1798 14.12C34.8718 14.12 34.0198 13.436 34.0198 12.356C34.0198 11.24 34.9078 10.592 36.0478 10.592H38.0038V10.34C38.0038 9.56 37.5118 9.128 36.6478 9.128C35.8198 9.128 35.3878 9.512 35.3158 10.184H34.2118C34.3318 8.96 35.0998 8.144 36.6838 8.144C38.1838 8.144 39.1558 8.876 39.1558 10.34V12.536C39.1558 12.8 39.3118 12.956 39.5758 12.956H40.0438V14H39.4438C38.7478 14 38.2918 13.724 38.0998 13.196H38.0158C37.6558 13.82 37.0438 14.12 36.1798 14.12ZM35.2078 12.284C35.2078 12.824 35.5798 13.136 36.3118 13.136C37.3318 13.136 38.0038 12.548 38.0038 11.636V11.468H36.4678C35.6278 11.468 35.2078 11.744 35.2078 12.284ZM43.5847 16.388C41.7127 16.388 40.6207 15.584 40.6207 14.408C40.6207 13.388 41.4247 12.608 42.9487 12.464V12.38C41.6887 12.164 40.9087 11.36 40.9087 10.292C40.9087 9.068 41.9767 8.144 43.5127 8.144C44.0287 8.144 44.4967 8.252 44.8807 8.432L46.0327 7.352L46.7527 8.084L45.7207 9.116C45.9727 9.44 46.1167 9.848 46.1167 10.292C46.1167 11.3 45.3967 12.164 44.2447 12.38V12.464C45.7807 12.608 46.5487 13.352 46.5487 14.384C46.5487 15.572 45.4567 16.388 43.5847 16.388ZM41.7967 14.384C41.7967 15.032 42.3607 15.404 43.5727 15.404C44.7967 15.404 45.3727 15.032 45.3727 14.372C45.3727 13.724 44.7967 13.328 43.5847 13.328C42.3727 13.328 41.7967 13.724 41.7967 14.384ZM42.0487 10.316C42.0487 11.048 42.5647 11.528 43.5127 11.528C44.4607 11.528 44.9767 11.048 44.9767 10.316C44.9767 9.596 44.4487 9.104 43.5127 9.104C42.5767 9.104 42.0487 9.596 42.0487 10.316ZM50.4016 14.12C48.5656 14.12 47.5216 12.92 47.5216 11.132C47.5216 9.356 48.6736 8.144 50.3776 8.144C52.0816 8.144 53.0776 9.26 53.0776 10.868C53.0776 11.096 53.0776 11.18 53.0536 11.384H48.7096C48.7816 12.488 49.4056 13.124 50.4376 13.124C51.2296 13.124 51.7576 12.752 51.9376 12.164H53.0176C52.8376 13.316 51.9376 14.12 50.4016 14.12ZM48.7576 10.508H51.9496C51.8776 9.704 51.2536 9.14 50.3776 9.14C49.5376 9.14 48.9496 9.656 48.7576 10.508ZM56.2946 14V12.656H57.6626V14H56.2946ZM60.9155 16.28V15.272H63.5315C64.0355 15.272 64.2875 14.972 64.2875 14.468V9.584C64.2875 9.356 64.1555 9.224 63.9275 9.224H61.8755V8.264H64.6235C65.1635 8.264 65.4635 8.564 65.4635 9.104V14.48C65.4635 15.644 64.8275 16.28 63.6635 16.28H60.9155ZM64.2155 7.112V5.828H65.5235V7.112H64.2155ZM70.5044 14.12C68.7044 14.12 67.8284 13.304 67.7924 12.032H68.8964C68.9444 12.764 69.4484 13.136 70.5044 13.136C71.4644 13.136 71.9444 12.86 71.9444 12.356C71.9444 11.972 71.6444 11.768 71.2004 11.708L69.4484 11.468C68.6084 11.348 67.9964 10.856 67.9964 9.932C67.9964 8.804 68.9324 8.144 70.3724 8.144C72.0764 8.144 72.9644 8.948 73.0004 10.136H71.9324C71.8604 9.5 71.3684 9.128 70.3724 9.128C69.5564 9.128 69.1004 9.38 69.1004 9.86C69.1004 10.22 69.3524 10.448 69.8564 10.508L71.6324 10.736C72.5084 10.844 73.0604 11.42 73.0604 12.332C73.0604 13.412 72.2564 14.12 70.5044 14.12ZM77.1894 14.12C75.4734 14.12 74.2374 12.872 74.2374 11.132C74.2374 9.404 75.4734 8.144 77.1894 8.144C78.9054 8.144 80.1414 9.404 80.1414 11.132C80.1414 12.872 78.9054 14.12 77.1894 14.12ZM75.4374 11.132C75.4374 12.32 76.1334 13.1 77.1894 13.1C78.2454 13.1 78.9414 12.32 78.9414 11.132C78.9414 9.944 78.2454 9.164 77.1894 9.164C76.1334 9.164 75.4374 9.944 75.4374 11.132ZM81.3063 14V8.264H82.3623L82.4823 8.948H82.5663C82.9863 8.408 83.5383 8.144 84.3663 8.144C85.7703 8.144 86.5863 9.02 86.5863 10.544V14H85.4103V10.724C85.4103 9.728 84.9063 9.164 84.0183 9.164C83.0463 9.164 82.4823 9.776 82.4823 10.724V14H81.3063Z" fill="#121212"/>
</svg>
