<svg width="81" height="27" viewBox="0 0 81 27" fill="none" xmlns="http://www.w3.org/2000/svg">
<rect width="81" height="27" fill="#333232"/>
<g id="Design Section">
<path d="M-280 -113C-280 -114.105 -279.105 -115 -278 -115H3798C3799.1 -115 3800 -114.105 3800 -113V1813C3800 1814.1 3799.1 1815 3798 1815H-278C-279.105 1815 -280 1814.1 -280 1813V-113Z" fill="#404040"/>
<path d="M-278 -114H3798V-116H-278V-114ZM3799 -113V1813H3801V-113H3799ZM3798 1814H-278V1816H3798V1814ZM-279 1813V-113H-281V1813H-279ZM-278 1814C-278.552 1814 -279 1813.55 -279 1813H-281C-281 1814.66 -279.657 1816 -278 1816V1814ZM3799 1813C3799 1813.55 3798.55 1814 3798 1814V1816C3799.66 1816 3801 1814.66 3801 1813H3799ZM3798 -114C3798.55 -114 3799 -113.552 3799 -113H3801C3801 -114.657 3799.66 -116 3798 -116V-114ZM-278 -116C-279.657 -116 -281 -114.657 -281 -113H-279C-279 -113.552 -278.552 -114 -278 -114V-116Z" fill="white" fill-opacity="0.1"/>
<g id="Introduction" clip-path="url(#clip0_2212_421)">
<rect width="1920" height="1730" transform="translate(-180 -15)" fill="white"/>
<g id="Frame 6">
<path d="M1740 41H-180V43H1740V41Z" fill="#7D828E" fill-opacity="0.15" mask="url(#path-3-inside-1_2212_421)"/>
<g id="Asset 1 1">
<g id="Layer 2">
<g id="Layer 1">
<path id="Vector" d="M20.4994 21.2226C17.4259 21.2226 14.6552 21.2226 11.8922 21.2226C10.2392 21.2176 8.63332 20.6663 7.31971 19.6528C6.00609 18.6392 5.05697 17.2193 4.6173 15.6097C4.15289 13.9075 4.26581 12.0973 4.93806 10.4676C5.6103 8.83777 6.80319 7.48215 8.32664 6.61671C9.78083 5.75442 11.4784 5.40727 13.1501 5.6303C14.8218 5.85334 16.3719 6.63379 17.5546 7.84789C18.7506 9.03468 19.5314 10.5828 19.7786 12.2579C20.0258 13.933 19.7261 15.6438 18.9248 17.1314C18.5993 17.7279 18.2132 18.2938 17.7211 19.0891L20.3707 19.2726L20.4994 21.2226ZM6.40384 13.3308C6.36713 14.1033 6.48464 14.8754 6.74937 15.601C7.0141 16.3267 7.42065 16.9912 7.94481 17.5549C8.46897 18.1186 9.10003 18.57 9.80045 18.8823C10.5009 19.1945 11.2563 19.3613 12.0218 19.3726C12.7873 19.3838 13.5473 19.2394 14.2564 18.948C14.9655 18.6565 15.6094 18.2239 16.1496 17.6759C16.6898 17.1279 17.1154 16.4757 17.401 15.7581C17.6866 15.0406 17.8263 14.2723 17.812 13.4991C17.8497 12.7273 17.7334 11.9557 17.4701 11.2301C17.2068 10.5046 16.8018 9.83993 16.2792 9.27563C15.7566 8.71133 15.127 8.2589 14.4279 7.94524C13.7288 7.63157 12.9744 7.46307 12.2095 7.44974C11.4447 7.43641 10.685 7.57852 9.97554 7.86764C9.26612 8.15676 8.62148 8.58697 8.0799 9.13273C7.53833 9.67848 7.11088 10.3286 6.82295 11.0446C6.53503 11.7605 6.3925 12.5276 6.40384 13.3002V13.3308Z" fill="#233137"/>
<path id="Vector_2" d="M30.175 21.2302C29.1505 21.2304 28.1362 21.024 27.1917 20.6232C26.2471 20.2224 25.3912 19.6351 24.6742 18.8958C23.9572 18.1566 23.3934 17.2802 23.016 16.318C22.6386 15.3558 22.4551 14.3273 22.4763 13.2925C22.5603 11.2419 23.4326 9.30511 24.9078 7.89387C26.3831 6.48264 28.345 5.70817 30.3766 5.73505C32.4082 5.76194 34.3493 6.58806 35.7875 8.03785C37.2256 9.48764 38.0474 11.4468 38.0782 13.499C38.0444 15.5827 37.1929 17.5675 35.7109 19.0172C34.2289 20.4669 32.2377 21.2629 30.175 21.2302ZM35.9889 13.3231C35.9935 12.5521 35.8449 11.7879 35.5521 11.0759C35.2592 10.3638 34.8279 9.71837 34.2837 9.17767C33.7395 8.63697 33.0935 8.21202 32.3839 7.92795C31.6743 7.64389 30.9155 7.50649 30.1524 7.52389C29.3893 7.54128 28.6374 7.71311 27.9412 8.02921C27.2449 8.34531 26.6186 8.79926 26.0991 9.3642C25.5796 9.92915 25.1776 10.5936 24.9168 11.3183C24.656 12.0429 24.5417 12.8131 24.5807 13.5831C24.5761 14.3542 24.7247 15.1183 25.0175 15.8304C25.3104 16.5424 25.7417 17.1879 26.2859 17.7286C26.8301 18.2693 27.4761 18.6942 28.1857 18.9783C28.8953 19.2623 29.6541 19.3997 30.4172 19.3823C31.1803 19.365 31.9322 19.1931 32.6285 18.877C33.3247 18.5609 33.951 18.107 34.4705 17.542C34.99 16.9771 35.392 16.3126 35.6528 15.588C35.9136 14.8633 36.0279 14.0932 35.9889 13.3231Z" fill="#233137"/>
<path id="Vector_3" d="M56.548 12.3592H63.4368V14.2633H56.6238V19.1574H64.5799L64.7086 21.0539H54.6328V5.85156H64.2241V7.64097H56.548V12.3592Z" fill="#233137"/>
<path id="Vector_4" d="M75.9042 6.80035L75.2002 8.238C74.2712 7.91317 73.3198 7.65758 72.3538 7.47329C71.6145 7.38377 70.8647 7.4837 70.1736 7.76388C69.8537 7.87036 69.571 8.06793 69.3595 8.33284C69.1481 8.59775 69.0168 8.91872 68.9817 9.25716C68.9465 9.5956 69.0088 9.9371 69.1612 10.2406C69.3136 10.5441 69.5495 10.7967 69.8405 10.968C70.9691 11.6523 72.1427 12.2578 73.3531 12.7803C74.9579 13.5986 76.1161 14.738 76.1086 16.7339C76.1716 17.8042 75.826 18.8582 75.1431 19.679C74.4601 20.4997 73.4917 21.0249 72.4371 21.1462C71.3585 21.3164 70.2572 21.2688 69.1969 21.0063C68.1366 20.7437 67.1384 20.2715 66.2599 19.6168L67.0169 18.248C67.2053 18.2819 67.3903 18.3331 67.5695 18.4009C68.9851 19.1274 70.4159 19.7774 72.0661 19.2727C72.5656 19.1806 73.0248 18.9351 73.3811 18.5697C73.7374 18.2043 73.9735 17.7368 74.0571 17.2309C74.1269 16.753 74.0415 16.2651 73.8135 15.8405C73.5856 15.4158 73.2275 15.0773 72.7929 14.8756C71.8693 14.3403 70.8776 13.9274 69.9162 13.4686C67.4333 12.2909 66.5021 10.6621 67.085 8.54388C67.6074 6.6627 69.6967 5.42388 72.0661 5.6227C72.6316 5.65674 73.1922 5.74898 73.7391 5.89799C74.3902 6.12741 75.0109 6.43329 75.9042 6.80035Z" fill="#233137"/>
<path id="Vector_5" d="M49.441 5.85282H51.712C49.5016 11.1522 47.3819 16.2452 45.0731 21.8046L38.4492 5.85282L40.7202 5.73047C42.1737 9.36282 43.5969 12.934 45.1715 16.8569L49.441 5.85282Z" fill="#233137"/>
</g>
</g>
</g>
</g>
</g>
</g>
<defs>
<clipPath id="clip0_2212_421">
<rect width="1920" height="1730" fill="white" transform="translate(-180 -15)"/>
</clipPath>
</defs>
</svg>
